<mxfile host="drawio-plugin" agent="Mozilla/5.0 (Windows NT 10.0; Win64; x64) AppleWebKit/537.36 (KHTML, like Gecko) Chrome/122.0.0.0 Safari/537.36" modified="2024-08-31T20:06:40.054Z" version="22.1.22" etag="p0ybDKlTng_d4eKz8qTh" type="embed">
  <diagram name="Page-1" id="8yGMV0bnIEBxnnU7-nbl">
    <mxGraphModel dx="485" dy="279" grid="1" gridSize="10" guides="1" tooltips="1" connect="1" arrows="1" fold="1" page="1" pageScale="1" pageWidth="850" pageHeight="1100" math="0" shadow="0">
      <root>
        <mxCell id="0" />
        <mxCell id="1" parent="0" />
        <mxCell id="QQ3TvARbI0KV-oNSArRQ-4" value="" style="edgeStyle=orthogonalEdgeStyle;rounded=0;orthogonalLoop=1;jettySize=auto;html=1;" parent="1" source="QQ3TvARbI0KV-oNSArRQ-1" target="QQ3TvARbI0KV-oNSArRQ-3" edge="1">
          <mxGeometry relative="1" as="geometry" />
        </mxCell>
        <mxCell id="QQ3TvARbI0KV-oNSArRQ-1" value="start" style="rounded=1;whiteSpace=wrap;html=1;" parent="1" vertex="1">
          <mxGeometry x="400" y="60" width="120" height="60" as="geometry" />
        </mxCell>
        <mxCell id="QQ3TvARbI0KV-oNSArRQ-2" value="end" style="rounded=1;whiteSpace=wrap;html=1;" parent="1" vertex="1">
          <mxGeometry x="400" y="850" width="120" height="60" as="geometry" />
        </mxCell>
        <mxCell id="QQ3TvARbI0KV-oNSArRQ-8" value="" style="edgeStyle=orthogonalEdgeStyle;rounded=0;orthogonalLoop=1;jettySize=auto;html=1;" parent="1" source="QQ3TvARbI0KV-oNSArRQ-3" target="QQ3TvARbI0KV-oNSArRQ-5" edge="1">
          <mxGeometry relative="1" as="geometry" />
        </mxCell>
        <mxCell id="QQ3TvARbI0KV-oNSArRQ-3" value="x: int&amp;nbsp;&lt;div&gt;777&lt;/div&gt;" style="rounded=0;whiteSpace=wrap;html=1;" parent="1" vertex="1">
          <mxGeometry x="400" y="200" width="120" height="60" as="geometry" />
        </mxCell>
        <mxCell id="QQ3TvARbI0KV-oNSArRQ-7" value="" style="edgeStyle=orthogonalEdgeStyle;rounded=0;orthogonalLoop=1;jettySize=auto;html=1;" parent="1" source="QQ3TvARbI0KV-oNSArRQ-5" target="QQ3TvARbI0KV-oNSArRQ-6" edge="1">
          <mxGeometry relative="1" as="geometry" />
        </mxCell>
        <mxCell id="QQ3TvARbI0KV-oNSArRQ-5" value="&lt;div&gt;y: int&lt;/div&gt;&lt;div&gt;888&lt;/div&gt;" style="rounded=0;whiteSpace=wrap;html=1;" parent="1" vertex="1">
          <mxGeometry x="400" y="310" width="120" height="60" as="geometry" />
        </mxCell>
        <mxCell id="QQ3TvARbI0KV-oNSArRQ-10" value="" style="edgeStyle=orthogonalEdgeStyle;rounded=0;orthogonalLoop=1;jettySize=auto;html=1;" parent="1" source="QQ3TvARbI0KV-oNSArRQ-6" target="QQ3TvARbI0KV-oNSArRQ-9" edge="1">
          <mxGeometry relative="1" as="geometry" />
        </mxCell>
        <mxCell id="QQ3TvARbI0KV-oNSArRQ-6" value="&lt;div&gt;z: int&lt;/div&gt;&lt;div&gt;999&lt;/div&gt;" style="rounded=0;whiteSpace=wrap;html=1;" parent="1" vertex="1">
          <mxGeometry x="400" y="430" width="120" height="60" as="geometry" />
        </mxCell>
        <mxCell id="QQ3TvARbI0KV-oNSArRQ-12" value="" style="edgeStyle=orthogonalEdgeStyle;rounded=0;orthogonalLoop=1;jettySize=auto;html=1;" parent="1" source="QQ3TvARbI0KV-oNSArRQ-9" target="QQ3TvARbI0KV-oNSArRQ-11" edge="1">
          <mxGeometry relative="1" as="geometry" />
        </mxCell>
        <mxCell id="QQ3TvARbI0KV-oNSArRQ-9" value="mul: int&lt;div&gt;x * y + z&lt;/div&gt;" style="whiteSpace=wrap;html=1;rounded=0;" parent="1" vertex="1">
          <mxGeometry x="400" y="570" width="120" height="60" as="geometry" />
        </mxCell>
        <mxCell id="QQ3TvARbI0KV-oNSArRQ-13" value="" style="edgeStyle=orthogonalEdgeStyle;rounded=0;orthogonalLoop=1;jettySize=auto;html=1;" parent="1" source="QQ3TvARbI0KV-oNSArRQ-11" target="QQ3TvARbI0KV-oNSArRQ-2" edge="1">
          <mxGeometry relative="1" as="geometry" />
        </mxCell>
        <mxCell id="QQ3TvARbI0KV-oNSArRQ-11" value="print (mul)" style="shape=document;whiteSpace=wrap;html=1;boundedLbl=1;rounded=0;" parent="1" vertex="1">
          <mxGeometry x="400" y="700" width="120" height="80" as="geometry" />
        </mxCell>
      </root>
    </mxGraphModel>
  </diagram>
</mxfile>
